<?xml version="1.0" encoding="UTF-8"?>
<svg width="201px" height="201px" viewBox="0 0 201 201" version="1.1" xmlns="http://www.w3.org/2000/svg" xmlns:xlink="http://www.w3.org/1999/xlink">
    <title>icon-mhjy</title>
    <g id="页面-1" stroke="none" stroke-width="1" fill="none" fill-rule="evenodd">
        <g id="icon-mhjy" transform="translate(0.500000, 0.036580)">
            <rect id="矩形" fill-opacity="0" fill="#D8D8D8" x="0" y="0" width="200" height="200"></rect>
            <g id="编组-5" transform="translate(26.000000, 26.000000)" fill-rule="nonzero">
                <path d="M4.94384766,76.0116577 L143.371582,76.0116577 L143.371582,77.2476196 C143.371582,114.326477 113.090515,144.607544 76.0116577,144.607544 L72.303772,144.607544 C35.2249146,144.607544 4.94384766,114.326477 4.94384766,77.2476196 L4.94384766,76.0116577 Z" id="路径" fill="#19AAB1"></path>
                <path d="M126.686096,21.6293335 C112.781525,7.72476196 93.9331055,0 74.1577148,0 C54.3823242,0 35.533905,7.72476196 21.6293335,21.6293335 C7.72476196,35.8428955 0,54.3823242 0,74.1577148 C0,93.9331055 7.72476196,112.781525 21.6293335,126.686096 C35.533905,140.590668 54.0733337,148.31543 74.1577148,148.31543 C94.2420959,148.31543 112.781525,140.590668 126.686096,126.686096 C140.590668,112.781525 148.31543,94.2420959 148.31543,74.1577148 C148.31543,54.0733337 140.590668,35.8428955 126.686096,21.6293335 Z M74.1577148,140.281677 C59.3261719,140.281677 45.1126099,135.33783 33.3709717,125.759125 C46.3485718,122.97821 58.7081909,118.034363 69.5228577,110.618591 C70.7588196,111.545563 72.303772,111.854553 74.1577148,111.854553 C77.2476196,111.854553 80.0285339,110.309601 82.5004578,107.837677 L84.0454102,107.837677 C87.4443054,108.146667 90.8432007,108.455658 94.2420959,108.455658 C104.438782,108.455658 114.635468,107.219696 125.141144,104.747772 C126.068115,105.056763 126.686096,105.365753 127.304077,105.674744 C128.540039,106.292725 129.776001,106.910706 131.011963,107.219696 C119.270325,127.613068 97.6409912,140.281677 74.1577148,140.281677 Z M42.640686,51.9104004 L44.1856384,51.9104004 C50.365448,51.9104004 55.0003052,47.2755432 55.0003052,41.0957336 C55.0003052,39.5507812 54.6913147,38.3148193 54.3823242,37.3878479 C57.472229,34.2979431 60.8711243,31.2080383 65.196991,27.8091431 C68.9048767,46.6575623 77.8656006,64.57901 91.1521912,79.1015625 C87.4443054,84.0454102 83.4274292,88.3712769 80.0285339,91.7701721 C78.4835815,90.5342102 76.3206482,89.9162292 74.1577148,89.9162292 C69.8318481,89.9162292 66.1239624,92.6971436 64.2700195,96.4050293 C50.983429,93.006134 38.9328003,88.0622864 28.427124,81.5734863 C31.2080383,71.0678101 35.8428955,60.8711243 42.3316956,51.2924194 C42.3316956,51.6014099 42.3316956,51.6014099 42.640686,51.9104004 Z M84.9723816,98.8769531 C88.6802673,95.1690674 92.6971436,90.8432007 97.0230103,85.2813721 C102.584839,90.5342102 108.146667,94.8600769 114.017487,98.5679626 C107.837677,99.4949341 101.039886,100.112915 94.2420959,100.112915 L84.9723816,100.112915 L84.9723816,98.8769531 Z M110.00061,21.0113525 C110.00061,27.8091431 109.382629,34.2979431 108.146667,40.7867432 C103.51181,42.0227051 100.112915,46.3485718 100.112915,50.983429 C100.112915,53.7643433 101.039886,56.5452576 102.893829,58.09021 C100.730896,62.7250671 98.5679626,67.6689148 95.7870483,72.303772 C83.4274292,58.09021 75.7026672,40.7867432 72.6127625,22.5563049 C80.3375244,17.9214478 88.3712769,14.5225525 96.4050293,12.3596191 C101.348877,14.213562 106.292725,16.3764954 110.00061,18.8484192 L110.00061,21.0113525 Z M49.1294861,31.2080383 C47.5845337,30.2810669 46.0395813,29.9720764 44.1856384,29.9720764 C38.0058289,29.9720764 33.3709717,34.6069336 33.3709717,40.7867432 C33.3709717,42.9496765 33.9889526,44.8036194 35.533905,46.9665527 C29.045105,56.2362671 24.4102478,66.4329529 21.320343,76.9386292 C17.3034668,74.1577148 13.5955811,71.0678101 8.96072388,66.7419434 C12.3596191,37.6968384 34.9159241,14.213562 63.6520386,9.26971436 C63.6520386,12.3596191 63.9610291,15.4495239 64.2700195,18.5394287 C59.0171814,22.5563049 54.0733337,26.8821716 49.1294861,31.2080383 L49.1294861,31.2080383 Z M110.309601,61.7980957 L110.927582,61.7980957 C117.107391,61.7980957 121.742249,57.1632385 121.742249,50.983429 C121.742249,46.9665527 119.579315,43.5676575 116.18042,41.7137146 C117.416382,36.4608765 118.034363,31.2080383 118.034363,25.6462097 C131.938934,38.3148193 139.663696,55.9272766 139.663696,74.7756958 C139.663696,80.9555054 138.736725,86.8263245 137.191772,93.006134 C133.792877,94.5510864 130.084991,95.7870483 126.068115,96.7140198 C117.416382,92.3881531 109.073639,86.2083435 101.657867,79.1015625 C104.438782,73.5397339 107.528687,68.2868958 110.309601,61.7980957 Z M82.1914673,8.96072388 C78.792572,10.5056763 75.0846863,12.0506287 71.685791,13.5955811 L71.685791,8.34274292 L74.1577148,8.34274292 C76.9386292,8.34274292 79.7195435,8.6517334 82.1914673,8.96072388 Z M63.9610291,104.747772 C52.5283813,112.163544 39.8597717,116.798401 25.9552002,119.270325 C25.6462097,119.270325 25.6462097,119.270325 25.6462097,118.961334 L25.3372192,118.652344 L25.3372192,117.107391 C25.0282288,114.017487 24.7192383,110.927582 24.7192383,107.528687 C24.7192383,101.657867 25.3372192,95.4780579 26.5731812,90.2252197 C38.6238098,97.0230103 51.2924194,101.966858 63.9610291,104.747772 Z M18.8484192,85.2813721 C17.6124573,93.006134 16.6854858,100.112915 16.6854858,106.601715 C11.7416382,97.3320007 8.96072388,87.4443054 8.34274292,77.5566101 C11.7416382,80.0285339 15.1405334,83.1184387 18.8484192,85.2813721 Z" id="形状" fill="#FFFFFF"></path>
            </g>
        </g>
    </g>
</svg>