<?xml version="1.0" encoding="UTF-8"?>
<svg width="200px" height="200px" viewBox="0 0 200 200" version="1.1" xmlns="http://www.w3.org/2000/svg" xmlns:xlink="http://www.w3.org/1999/xlink">
    <title>icon-zhlj</title>
    <g id="页面-1" stroke="none" stroke-width="1" fill="none" fill-rule="evenodd">
        <g id="icon-zhlj">
            <rect id="矩形" fill-opacity="0" fill="#D8D8D8" x="0" y="0" width="200" height="200"></rect>
            <path d="M58.1,32.5 C43.1,41.9 31.2,55.6 25,72.5 L98.1,72.5 L58.1,32.5 Z M141.9,167.5 C156.9,158.1 168.8,144.4 175,127.5 L101.9,127.5 L141.9,167.5 L141.9,167.5 Z M20,100 C20,111.9 22.5,123.1 27.5,133.1 L78.8,81.8 L21.9,81.8 C21.3,87.5 20,93.7 20,100 Z M172.5,66.9 L121.3,118.2 L178.2,118.2 C179.5,112.6 180.7,106.3 180.7,100.1 C180,88.1 176.9,76.9 172.5,66.9 L172.5,66.9 Z M32.5,141.9 C41.9,156.9 55.6,168.8 72.5,175 L72.5,101.9 L32.5,141.9 Z M81.9,177.5 C87.5,178.8 93.8,180 100,180 C111.9,180 123.1,177.5 133.1,172.5 L81.8,121.3 C81.9,121.3 81.9,177.5 81.9,177.5 Z M118.1,22.5 C112.5,21.2 106.2,20 100,20 C88.1,20 76.9,22.5 66.9,27.5 L118.2,78.8 L118.1,22.5 Z M167.5,58.1 C158.1,43.1 144.4,31.2 127.5,25 L127.5,98.1 L167.5,58.1 L167.5,58.1 Z" id="形状" fill="#FFFFFF" fill-rule="nonzero"></path>
        </g>
    </g>
</svg>