<?xml version="1.0" encoding="UTF-8"?>
<svg width="201px" height="201px" viewBox="0 0 201 201" version="1.1" xmlns="http://www.w3.org/2000/svg" xmlns:xlink="http://www.w3.org/1999/xlink">
    <title>icon-glsx</title>
    <g id="页面-1" stroke="none" stroke-width="1" fill="none" fill-rule="evenodd">
        <g id="icon-glsx" transform="translate(0.494141, 0.498698)">
            <rect id="矩形" fill-opacity="0" fill="#D8D8D8" x="0" y="0" width="200" height="200"></rect>
            <g id="编组-8" transform="translate(34.000000, 32.000000)" fill-rule="nonzero">
                <path d="M76.5484821,98.3715937 L76.598232,98.335412 C76.6344138,98.3052605 76.6690879,98.2736015 76.7067772,98.2464652 C76.6509971,98.2886772 76.5952169,98.3323968 76.5484821,98.3715937 L76.5484821,98.3715937 Z" id="路径" fill="#000000"></path>
                <path d="M127.450147,88.0778912 L125.10738,88.0778912 L125.10738,37.7219672 C125.10738,35.2902533 125.15713,32.8525092 125.10738,30.4223029 L125.10738,30.3167729 C125.105873,29.869024 125.035017,29.4227826 124.89632,28.9961397 C124.698844,28.2737874 124.310947,27.6177466 123.773179,27.0965988 L114.631262,18.3798168 L100.07716,4.49960026 L96.7605016,1.33822152 C96.6459261,1.2311839 96.5253204,1.13017657 96.4001919,1.03519952 C95.6119977,0.343177164 94.5901829,-0.0232965149 93.5418351,0.0100504808 L47.0468033,0.0100504808 C43.770849,0.0100504808 40.4933872,-0.012563101 37.217433,0.0100504808 C32.2032481,0.0447246397 27.2086617,2.91664954 25.1508257,7.59615341 C25.1432879,7.6127367 25.1417803,7.62931999 25.1342424,7.64590329 L20.3808675,7.64590329 C18.5431371,7.66550172 16.9194819,8.0996825 15.2656753,8.85497613 C10.4957171,11.0484936 7.99767012,16.4380639 7.99013226,21.4763699 C7.98410197,25.397565 7.98410197,29.3187601 7.99013226,33.2399552 L7.99013226,77.0409557 C7.99013226,80.7164165 7.93435209,84.3994152 7.99013226,88.0748761 L4.55136024,88.0748761 C2.09100254,88.0748761 0,90.1613559 0,92.6277439 L0,130.490418 C0,132.950775 2.08497225,135.041778 4.55136024,135.041778 L113.327212,135.041778 C117.970534,135.041778 122.621394,135.120172 127.263208,135.041778 L127.44864,135.041778 C129.908997,135.041778 132,132.956806 132,130.490418 L132,92.630759 C132,90.1688938 129.915028,88.0778912 127.450147,88.0778912 Z M98.1022408,16.3913292 L98.1022408,15.1822563 L99.4741314,16.4893214 L109.187419,25.7639051 L104.060166,25.7639051 C103.276228,25.7639051 102.484753,25.7895338 101.6978,25.7382763 C101.338998,25.6613902 100.986226,25.5649055 100.639485,25.4473149 C100.340985,25.2980653 100.051532,25.1322323 99.7741383,24.9498161 L99.7379566,24.925695 C99.5962448,24.8005665 99.454533,24.675438 99.3218666,24.5412641 C99.1876927,24.4070902 99.0610567,24.2653784 98.9344206,24.1236666 L98.911807,24.0889924 C98.7297881,23.8088382 98.5632046,23.5189527 98.4128007,23.2206309 C98.2876722,22.8437379 98.1866648,22.4562918 98.1112862,22.0658306 C97.960529,20.1949336 98.1022408,18.2516732 98.1022408,16.3913292 L98.1022408,16.3913292 Z M32.9464812,22.2949816 C32.9464812,19.313004 32.9238676,16.3325339 32.9464812,13.3505562 C32.9464812,13.1440188 32.9540191,12.9374814 32.9690948,12.7294365 C33.0474885,12.364604 33.1484959,12.0058019 33.2706092,11.6545376 C33.4183513,11.3560383 33.5841842,11.0650769 33.768108,10.786176 L33.7907216,10.7515019 C33.9158501,10.6097901 34.0424861,10.4680783 34.1781676,10.3323968 C34.3123415,10.1982229 34.4525457,10.0715868 34.5942575,9.94495078 L34.6304393,9.92233719 C34.9093401,9.73992097 35.1987939,9.57258046 35.4972932,9.42483839 C35.8741863,9.29970991 36.2601247,9.19870257 36.6505859,9.1218164 C38.5094223,8.97105918 40.4391146,9.11427854 42.2828754,9.11427854 L86.4230796,9.11427854 C87.2748578,9.11427854 88.1296512,9.11427854 88.982937,9.12633911 C88.9693689,13.2751776 88.951278,17.4255237 88.982937,21.5743621 C89.0176112,25.1262021 90.4302063,28.6509057 93.0156925,31.1203088 C95.5210266,33.5109359 98.8455035,34.8533472 102.308367,34.8726558 C105.214966,34.8982846 108.123073,34.8726558 111.029672,34.8726558 L115.997122,34.8726558 L115.997122,83.0094337 C115.997122,84.6979145 115.973001,86.3863953 115.974508,88.0733685 L86.8029877,88.0733685 C86.3220722,88.0371868 85.8396491,88.0929669 85.3798396,88.2361863 C84.3396149,88.5738825 83.1426026,89.2568126 82.6737477,90.298545 C82.4747482,90.6151351 82.3179607,90.9543388 82.2079079,91.3116334 C81.7420681,92.2734644 81.2098952,93.2021289 80.6174193,94.0915964 C80.4334955,94.3689897 80.2375111,94.6373375 80.0445419,94.9056854 C80.0068526,94.9524201 79.9691633,95.0006624 79.9299664,95.0473972 C79.4550812,95.6217821 78.9545673,96.172046 78.4254094,96.6981886 C77.9218804,97.2017177 77.3987528,97.6781105 76.8545193,98.1303821 L76.7806483,98.1876699 C76.9856781,98.0369127 77.1334201,97.9359053 76.7700953,98.2072683 L76.5997396,98.3323968 C76.5741109,98.3535028 76.5484821,98.3700861 76.524361,98.3942073 C76.513808,98.4017451 76.5017474,98.409283 76.4911944,98.4168209 L76.4896868,98.4183284 C76.29521,98.5600402 76.0992257,98.6957217 75.9002261,98.8314032 C74.8449256,99.5399621 73.7323374,100.161082 72.5760296,100.69024 C71.0330767,101.292405 69.4313567,101.731489 67.797026,102.00032 C66.1345837,102.172183 64.4588515,102.172183 62.7964092,102.00032 C61.1622011,101.730464 59.5611595,101.291761 58.0189132,100.69024 C56.8912492,100.176158 55.8073049,99.5761438 54.774618,98.8917061 C54.5047626,98.712305 54.242445,98.5268736 53.981635,98.3384271 C54.0313849,98.3806391 54.0856575,98.4243587 54.1444528,98.4756162 C54.0856575,98.4258663 54.023847,98.377624 53.9650517,98.3308892 L53.9756047,98.3384271 C53.7675598,98.1620412 53.6590146,98.074602 53.5866511,98.0173142 C53.5610224,97.9947007 53.5323785,97.9751022 53.5067498,97.9509811 C53.0424176,97.5544896 52.600699,97.1414148 52.1604879,96.7102492 C51.6569588,96.2067201 51.1790585,95.6835926 50.7252792,95.1408666 L50.5504009,94.9252838 C50.3729645,94.6831057 50.1990726,94.4383504 50.0287809,94.1910962 C49.2115976,92.9737967 48.5081157,91.6839116 47.9272254,90.3377418 C47.312136,88.9191165 45.451792,88.0839215 43.9984924,88.0839215 L32.9464812,88.0839215 L32.9464812,22.2949816 Z M17.0581786,29.0594577 C17.0581786,26.4709564 17.0400877,23.8809475 17.0581786,21.2939537 C17.0596862,21.0934466 17.0838073,20.8944471 17.0943603,20.69394 C17.2029055,20.087896 17.3657233,19.4939126 17.5737682,18.9134973 C17.7169876,18.6345965 17.8451312,18.3481578 18.0154869,18.0843327 C18.0365929,18.0526737 18.0576989,18.0225222 18.0788049,17.9908632 C18.1677517,17.8868407 18.258206,17.7843258 18.3486603,17.6878412 C18.4722812,17.5536673 18.613993,17.4270312 18.7541972,17.3019027 C18.96978,17.1662212 19.2019461,17.0576761 19.428082,16.9385779 C19.6587405,16.8631993 19.8909066,16.7983736 20.1260879,16.7456086 C21.101487,16.691336 22.0904543,16.7139496 23.0568081,16.7139496 L23.8437607,16.7139496 L23.8437607,88.0778912 L17.0581786,88.0778912 L17.0581786,29.0594577 Z M122.89728,125.940565 L116.077023,125.939058 L18.6727883,125.939058 C15.4872884,125.939058 12.2942507,125.8878 9.10422805,125.890815 L9.10422805,97.1806117 L41.1793326,97.1806117 C44.7296649,103.539551 50.9906119,108.362274 58.0038375,110.267845 C66.063318,112.453825 75.1389022,110.855798 81.7888029,105.749652 C84.8552046,103.396332 87.5040088,100.536467 89.3960118,97.1806117 L122.89728,97.1806117 L122.89728,125.940565 Z" id="形状" fill="#FFFFFF"></path>
                <path d="M44.2668403,47.5679207 L80.5299801,47.5679207 C82.9013911,47.5679207 85.1733023,45.4829484 85.0632495,43.0346513 C84.9531967,40.5878618 83.0717467,38.5013819 80.5299801,38.5013819 L44.2668403,38.5013819 C41.8969369,38.5013819 39.6235181,40.5878618 39.7335709,43.0346513 C39.8451312,45.4829484 41.7265812,47.5679207 44.2668403,47.5679207 Z M104.714452,57.8525777 L51.7052011,57.8525777 C49.2629343,57.8525777 46.8131296,57.8028278 44.3723703,57.8525777 L44.2668403,57.8525777 C41.8969369,57.8525777 39.6235181,59.93755 39.7335709,62.3858471 C39.8436237,64.8341442 41.7250737,66.9191165 44.2668403,66.9191165 L97.2775988,66.9191165 C99.7198657,66.9191165 102.16967,66.9688664 104.61043,66.9191165 L104.714452,66.9191165 C107.085863,66.9191165 109.357774,64.8341442 109.247722,62.3858471 C109.137669,59.93755 107.256219,57.8525777 104.714452,57.8525777 L104.714452,57.8525777 Z" id="形状" fill="#19AAB1"></path>
            </g>
        </g>
    </g>
</svg>