<?xml version="1.0" encoding="UTF-8"?>
<svg width="201px" height="200px" viewBox="0 0 201 200" version="1.1" xmlns="http://www.w3.org/2000/svg" xmlns:xlink="http://www.w3.org/1999/xlink">
    <title>icon-wyzk</title>
    <g id="页面-1" stroke="none" stroke-width="1" fill="none" fill-rule="evenodd">
        <g id="icon-wyzk" transform="translate(0.516590, 0.000000)">
            <rect id="矩形" fill-opacity="0" fill="#D8D8D8" x="0" y="0" width="200" height="200"></rect>
            <g id="编组-3" transform="translate(27.000000, 22.000000)" fill-rule="nonzero">
                <path d="M63.6064572,148.199122 C57.805676,148.199122 52.0927853,148.638575 46.3798947,148.111231 C33.4599728,146.880762 20.4521603,145.298731 7.62012909,143.540919 C2.25880097,142.837794 1.46778534,141.695216 0.58887909,136.333887 C-0.46580841,130.005762 -0.0263552847,123.765528 1.29200409,117.525294 C2.52247284,111.812403 6.82911347,108.648341 12.0146603,106.802637 C16.6728635,105.044825 21.5947385,103.902247 26.3408322,102.144434 C29.1533322,101.177637 31.790051,99.7713874 34.3388791,98.2772468 C39.524426,95.2010749 41.7216916,90.5428718 41.0185666,84.4784187 C40.6670041,81.6659187 39.8759885,79.0291999 37.5029416,77.359278 C33.0205197,74.1952155 30.5595822,69.8006843 29.0654416,64.6151374 C28.8017697,63.8241218 28.1865353,62.9452155 27.4834103,62.5057624 C22.2978635,58.9901374 20.6279416,51.6952155 23.7920041,46.1581062 C24.4951291,44.9276374 24.8466916,43.3456062 25.0224728,41.9393562 C25.8134885,36.2264655 26.0771603,30.3377937 27.3076291,24.8006843 C30.8232541,9.6834968 42.6884885,0.367090546 58.2451291,0.0155280463 C64.836926,-0.160253204 71.0771603,1.15810617 77.1416135,3.88271555 C85.5791135,7.5741218 91.0283322,13.9901374 93.4013791,22.7791999 C94.6318478,27.437403 95.4228635,32.2713874 96.1259885,37.0174812 C96.6533322,40.7088874 96.477551,44.312403 98.4990353,48.0038093 C101.135754,52.749903 98.4990353,59.4295905 94.0166135,62.6815437 C92.7861447,63.5604499 92.258801,65.406153 91.7314572,66.9002937 C91.2041135,68.3944343 90.5009885,69.4491218 88.9189572,70.1522468 C60.0908322,83.5116218 48.2255978,117.701075 62.5517697,146.001856 C62.9033322,146.792872 63.2548947,147.583887 63.6064572,148.199122 L63.6064572,148.199122 Z" id="路径" fill="#FFFFFF"></path>
                <path d="M105.793957,77.2713874 C84.0849728,77.2713874 66.1552853,95.2010749 66.1552853,116.99795 C66.1552853,138.882716 83.9970822,156.636622 105.793957,156.549056 C127.678723,156.549056 145.344738,138.882716 145.344738,116.910059 C145.344738,95.1131843 127.590832,77.2713874 105.793957,77.2713874 Z M126.272473,128.160059 C126.272473,128.863184 125.92091,129.302637 125.305676,129.6542 C124.778332,130.005762 124.163098,129.829981 123.635754,129.478419 L116.516613,124.380762 C115.549817,125.171778 114.495129,125.874903 111.243176,127.984278 C106.321301,131.412012 99.3779416,132.290919 93.7529416,132.290919 C88.3037228,132.290919 83.821301,131.499903 83.5576291,131.499903 C82.7666135,131.324122 82.2392697,130.708887 82.2392697,129.829981 C82.2392697,129.038966 82.7666135,128.335841 83.5576291,128.160059 C83.7334103,128.160059 99.5537228,124.0292 104.563488,115.415919 L98.7627072,111.285059 C98.2353635,110.933497 97.9716916,110.318262 98.0595822,109.790919 C98.0595822,109.087794 98.586926,108.648341 99.0263791,108.472559 L125.305676,98.7166999 C125.83302,98.5409187 126.448254,98.5409187 126.799817,98.8924812 C127.32716,99.2440437 127.502942,99.6834968 127.502942,100.210841 L126.272473,128.160059 L126.272473,128.160059 Z" id="形状" fill="#19AAB1"></path>
            </g>
        </g>
    </g>
</svg>