<?xml version="1.0" encoding="UTF-8"?>
<svg width="201px" height="201px" viewBox="0 0 201 201" version="1.1" xmlns="http://www.w3.org/2000/svg" xmlns:xlink="http://www.w3.org/1999/xlink">
    <title>icon-jydt</title>
    <g id="页面-1" stroke="none" stroke-width="1" fill="none" fill-rule="evenodd">
        <g id="icon-jydt" transform="translate(0.896484, 0.500000)">
            <rect id="矩形" fill-opacity="0" fill="#D8D8D8" x="0" y="0" width="200" height="200"></rect>
            <g id="编组-7" transform="translate(34.000000, 30.000000)" fill-rule="nonzero">
                <path d="M75.4322753,48.8449366 L27.255867,48.8449366 C24.5252585,48.8449366 22.3031081,51.067087 22.3031081,53.7976955 C22.3031081,56.528304 24.5252585,58.7504543 27.255867,58.7504543 L75.430706,58.7504543 C78.1613145,58.7504543 80.383465,56.528304 80.383465,53.7976955 C80.383465,51.067087 78.1628838,48.8449366 75.4322753,48.8449366 Z M27.2542977,69.6273782 C24.5236892,69.6273782 22.3015388,71.8495286 22.3015388,74.5801371 C22.3015388,77.3154536 24.5236892,79.5376039 27.2542977,79.5376039 L38.5439514,79.5376039 C41.2745599,79.5376039 43.4967103,77.3154536 43.4967103,74.5801371 C43.4967103,71.8495286 41.2745599,69.6273782 38.5439514,69.6273782 L27.2542977,69.6273782 Z" id="形状" fill="#FFFFFF"></path>
                <path d="M118.434652,16.0839118 C118.031338,7.0666265 110.682234,0 101.702612,0 L16.7226231,0 L15.9819063,0.0172624676 C7.01954703,0.428423058 0,7.82460575 0,16.8513069 L0,123.782878 L0.0172624676,124.536149 C0.420576482,133.548727 7.77124903,140.610645 16.7477322,140.610645 L62.3457556,140.610645 L62.8024263,140.580828 C65.1077504,140.306198 66.8073188,138.277073 66.6723576,135.957625 C66.5342579,133.638178 64.6087081,131.817772 62.2861215,131.817772 L16.7822571,131.817772 L16.2612445,131.800509 C12.0743114,131.54628 8.79287327,128.015321 8.79287327,123.760907 L8.79287327,16.8842626 L8.80699708,16.358542 C9.05965682,12.1198216 12.5482446,8.79758123 16.7477322,8.79758123 L101.675934,8.79758123 L102.181253,8.80542779 C106.393296,9.08947383 109.679441,12.6204331 109.655902,16.8497376 L109.643347,61.6976284 L109.671595,62.1511605 C109.949364,64.4627618 111.890606,66.181162 114.294798,66.0257998 C116.612676,65.8908387 118.433082,63.9637196 118.434652,61.6395637 L118.448775,16.8293366 L118.434652,16.0839118 Z" id="路径" fill="#FFFFFF"></path>
                <path d="M85.7536612,27.659181 L27.255867,27.659181 C24.5252585,27.659181 22.3031081,29.8813313 22.3031081,32.6119398 C22.3031081,35.3472563 24.5252585,37.5694067 27.255867,37.5694067 L85.7536612,37.5694067 C88.4858393,37.5694067 90.7095589,35.3472563 90.7095589,32.6119398 C90.7095589,29.8813313 88.4874085,27.659181 85.7536612,27.659181 Z" id="路径" fill="#FFFFFF"></path>
                <path d="M72.8036723,110.021553 L95.6952733,121.502663 C97.3571786,122.33283 99.2089702,122.7691 101.051346,122.7691 L101.079594,122.7691 C102.931386,122.7691 104.791025,122.328123 106.456069,121.499524 L129.284897,110.051369 C130.465812,109.587305 131.379456,108.622487 131.778538,107.418058 C132.180283,106.206547 132.031199,104.894599 131.365809,103.81491 C130.782023,102.85449 129.816894,102.154575 128.72779,101.901915 C127.630838,101.642978 126.466406,101.829727 125.597006,102.380557 L102.708543,113.856959 C101.688489,114.368556 100.464422,114.365417 99.4490753,113.861666 L76.665757,102.426066 C75.5923454,101.765385 74.2835365,101.600607 73.0720252,102.014906 C71.8636524,102.426066 70.9142167,103.344116 70.4701005,104.525811 C69.6258089,106.715005 70.7117751,109.196093 72.8036723,110.021553 L72.8036723,110.021553 Z" id="路径" fill="#19AAB1"></path>
                <path d="M73.7452614,92.1517597 L97.0590085,103.350393 C98.3348621,103.946733 99.703305,104.248042 101.074886,104.248042 C102.446468,104.248042 103.821188,103.946733 105.103319,103.345686 L128.363709,92.1643142 C130.422651,91.3561171 131.754999,89.3960425 131.754999,87.1817382 C131.754999,84.9674347 130.42422,83.0073601 128.435897,82.2289797 L105.090764,71.0224995 C102.542196,69.8329585 99.6185617,69.8282506 97.0527316,71.0272074 L73.7844943,82.2007323 C71.7271221,83.013637 70.3947734,84.9690039 70.3947734,87.1833074 C70.3947734,89.3819188 71.7082903,91.3294389 73.7452614,92.1517597 L73.7452614,92.1517597 Z M128.718374,119.746599 C127.602591,119.487661 126.463268,119.67441 125.592298,120.229948 L102.702266,131.711058 C101.690058,132.222655 100.469131,132.222655 99.4490753,131.711058 L76.6688957,120.280166 C75.5876375,119.599083 74.2725513,119.454706 73.0751638,119.861159 C71.873155,120.263965 70.9160093,121.18596 70.4685312,122.372063 C69.6273782,124.55655 70.7133444,127.037637 72.8036723,127.867805 L95.6905656,139.348915 L95.6921348,139.348915 C97.3775792,140.191638 99.2246639,140.610645 101.073317,140.610645 C102.92197,140.610645 104.769054,140.191638 106.454498,139.348915 L129.280189,127.905469 C130.462514,127.43878 131.3766,126.471229 131.7754,125.264311 C132.175575,124.0528 132.023352,122.740853 131.361101,121.665871 C130.780454,120.708589 129.818464,120.008674 128.718374,119.746599 L128.718374,119.746599 Z" id="形状" fill="#19AAB1"></path>
            </g>
        </g>
    </g>
</svg>