<?xml version="1.0" encoding="UTF-8"?>
<svg width="200px" height="200px" viewBox="0 0 200 200" version="1.1" xmlns="http://www.w3.org/2000/svg" xmlns:xlink="http://www.w3.org/1999/xlink">
    <title>icon-zxzc</title>
    <g id="页面-1" stroke="none" stroke-width="1" fill="none" fill-rule="evenodd">
        <g id="icon-zxzc">
            <rect id="矩形" fill-opacity="0" fill="#D8D8D8" x="0" y="0" width="200" height="200"></rect>
            <g id="编组" transform="translate(29.000000, 36.000000)" fill-rule="nonzero">
                <polygon id="路径" fill="#19AAB1" points="5.16639914 50.5243446 134.782236 50.5243446 134.782236 91.9315142 5.16639914 91.9315142"></polygon>
                <path d="M142,0 L0,0 L0,100.972713 L46.2696629,100.972713 L26.5917603,120.650615 L33.0497592,127.108614 L59.1856608,100.972713 L82.8143392,100.972713 L108.950241,127.108614 L115.40824,120.650615 L95.7303371,100.972713 L142,100.972713 L142,0 Z M132.806849,91.9315142 L9.11717496,91.9315142 L9.11717496,9.0411985 L132.806849,9.0411985 L132.806849,91.9315142 Z M62.9844837,23.552702 L25.9839486,23.552702 L25.9839486,62.0727662 L62.9844837,62.0727662 L62.9844837,23.552702 L62.9844837,23.552702 Z M80.0791867,29.1749599 L116.547887,29.1749599 L116.547887,24.6163724 L80.0791867,24.6163724 L80.0791867,29.1749599 Z M80.0791867,43.6104869 L116.547887,43.6104869 L116.547887,39.0518994 L80.0791867,39.0518994 L80.0791867,43.6104869 L80.0791867,43.6104869 Z M80.0791867,60.3253077 L116.547887,60.3253077 L116.547887,55.7667202 L80.0791867,55.7667202 L80.0791867,60.3253077 Z M26.1359016,76.2803638 L116.547887,76.2803638 L116.547887,71.7217764 L26.1359016,71.7217764 L26.1359016,76.2803638 Z" id="形状" fill="#FFFFFF"></path>
            </g>
        </g>
    </g>
</svg>