<?xml version="1.0" encoding="UTF-8"?>
<svg width="201px" height="201px" viewBox="0 0 201 201" version="1.1" xmlns="http://www.w3.org/2000/svg" xmlns:xlink="http://www.w3.org/1999/xlink">
    <title>icon-lzhc</title>
    <g id="页面-1" stroke="none" stroke-width="1" fill="none" fill-rule="evenodd">
        <g id="icon-lzhc" transform="translate(0.896484, 0.500000)">
            <rect id="矩形" fill-opacity="0" fill="#D8D8D8" x="0" y="0" width="200" height="200"></rect>
            <g id="编组-6" transform="translate(34.000000, 29.000000)" fill-rule="nonzero">
                <path d="M119.421608,17.3735656 L98.6547061,17.3735656 L98.6547061,12.5672659 C98.6547061,9.21048512 97.3466424,6.05396684 94.9673333,3.67783651 C92.5927924,1.30647434 89.4362741,0 86.0810827,0 L12.5736234,0 C9.22161082,0 6.06350315,1.30647434 3.68737282,3.67783651 C1.31124249,6.05237745 0.00317876967,9.20889574 0,12.5672659 L0,112.46805 C0.00635753934,119.397768 5.64867371,125.032137 12.5768022,125.032137 L27.0990115,125.032137 L27.0990115,129.838437 C27.1006008,133.198396 28.4102539,136.354914 30.7863843,138.731045 C33.1625146,141.102407 36.3190329,142.408881 39.6742243,142.408881 L119.41843,142.408881 C122.77521,142.408881 125.934907,141.102407 128.312627,138.727866 C130.688758,136.353325 131.996821,133.196807 132,129.838437 L132,29.9424209 C131.993642,23.0111137 126.351326,17.3735656 119.421608,17.3735656 Z M39.6805818,17.3719763 L39.6726349,17.3719763 C36.3174435,17.3719763 33.1609252,18.6784506 30.7847949,21.0498128 C28.443631,23.3893872 27.1006008,26.6301429 27.0974221,29.9424209 L27.0974221,117.271171 L12.579981,117.271171 C9.9257083,117.271171 7.76573431,115.117554 7.76573431,112.469639 L7.76573431,12.5720341 C7.76573431,9.92252953 9.9257083,7.76891308 12.579981,7.76891308 L86.0810827,7.76891308 C87.3589481,7.76891308 88.5652912,8.26639053 89.4744193,9.17233989 C90.3835475,10.0798786 90.8842037,11.2878111 90.8873825,12.5720341 L90.8873825,17.3719763 L39.6805818,17.3719763 Z M34.8647458,29.9440103 C34.8647458,27.2945058 37.0247198,25.1377106 39.6821712,25.1377106 L119.41843,25.1377106 C120.68358,25.1377106 121.926479,25.6494925 122.821303,26.5411374 C123.728841,27.4502655 124.231087,28.658198 124.234266,29.9408315 L124.234266,129.836847 C124.234266,132.484762 122.074292,134.638379 119.420019,134.638379 L39.6805818,134.638379 C37.0247198,134.638379 34.8631564,132.484762 34.8631564,129.836847 L34.8631564,29.9440103 L34.8647458,29.9440103 Z" id="形状" fill="#FFFFFF"></path>
                <path d="M52.1938086,99.6591974 C52.1938086,100.827395 52.6674453,101.970163 53.4939254,102.793464 C54.3204055,103.619944 55.4631732,104.093581 56.6281923,104.093581 L102.435853,104.093581 C103.623123,104.093581 104.735693,103.632659 105.573298,102.793464 C106.399778,101.966984 106.871826,100.824216 106.871826,99.6591974 C106.871826,89.9019639 101.437719,80.659691 92.963119,75.8724639 C97.8441199,71.8815186 100.732032,65.8180154 100.728853,59.4874956 C100.728853,47.8118746 91.2195639,38.3121215 79.5344066,38.3121215 C67.8492493,38.3121215 58.3415492,47.8118746 58.3415492,59.4874956 C58.336781,65.8164261 61.2246933,71.8767504 66.1056941,75.8724639 C57.626326,80.659691 52.1938086,89.9019639 52.1938086,99.6591974 Z M79.5328172,81.2191545 L79.5407641,81.2191545 C84.4694465,81.2191545 89.1056821,83.137542 92.591203,86.6198842 C94.978459,89.0039614 96.6536706,91.9665748 97.4578994,95.2232243 L61.607735,95.2232243 C62.4119637,91.9681641 64.085586,89.0055508 66.4712526,86.6198842 C69.9615417,83.1391314 74.6025454,81.2191545 79.5328172,81.2191545 L79.5328172,81.2191545 Z M70.8229883,50.7840243 C73.1466689,48.4635224 76.2348437,47.185657 79.548711,47.185657 C82.7846986,47.185657 85.9539319,48.4968995 88.2426461,50.7824349 C90.5710949,53.1045261 91.8537284,56.1942903 91.8584966,59.4874956 C91.8569072,62.7759329 90.5726843,65.8672864 88.2442355,68.1925564 C85.9205548,70.5146476 82.8307907,71.7941024 79.5248703,71.7941024 C76.2396118,71.7941024 73.1466689,70.516237 70.8229883,68.1957352 C68.4961289,65.8736439 67.2134953,62.7822904 67.2087272,59.4906744 C67.2103166,56.24674 68.5279166,53.0727384 70.8229883,50.7840243 Z M76.0616007,115.349604 L53.1585652,115.349604 C51.9919567,115.349604 50.8491891,115.823241 50.0242983,116.649721 C49.1851031,117.488916 48.7241815,118.603075 48.7241815,119.787167 C48.7241815,120.955365 49.1978182,122.098132 50.0242983,122.921434 C50.8475997,123.747914 51.9903674,124.221551 53.1585652,124.221551 L76.0616007,124.221551 C77.644628,124.221551 79.1163984,123.36964 79.8999651,122.004359 C80.6961068,120.632755 80.6979256,118.940108 79.9047332,117.566796 C79.114809,116.198336 77.644628,115.349604 76.0616007,115.349604 L76.0616007,115.349604 Z M108.361079,117.568386 C107.569566,116.199925 106.099385,115.349604 104.519536,115.349604 L92.0269714,115.349604 C90.8619523,115.349604 89.7175952,115.823241 88.8895257,116.649721 C88.0535093,117.488916 87.5909983,118.603075 87.5909983,119.787167 C87.5909983,120.953775 88.0630456,122.096543 88.8895257,122.921434 C89.7287209,123.760629 90.8428797,124.221551 92.0269714,124.221551 L104.519536,124.221551 C106.099385,124.221551 107.571155,123.372819 108.361079,122.002769 C109.149414,120.635898 109.149414,118.935257 108.361079,117.568386 L108.361079,117.568386 Z" id="形状" fill="#19AAB1"></path>
            </g>
        </g>
    </g>
</svg>