<?xml version="1.0" encoding="UTF-8"?>
<svg width="201px" height="201px" viewBox="0 0 201 201" version="1.1" xmlns="http://www.w3.org/2000/svg" xmlns:xlink="http://www.w3.org/1999/xlink">
    <title>icon-wyfc</title>
    <g id="页面-1" stroke="none" stroke-width="1" fill="none" fill-rule="evenodd">
        <g id="icon-wyfc" transform="translate(0.500000, 0.886719)">
            <rect id="矩形" fill-opacity="0" fill="#D8D8D8" x="0" y="0" width="200" height="200"></rect>
            <g id="编组-4" transform="translate(34.000000, 34.000000)" fill-rule="nonzero">
                <path d="M123.397902,10.5953571 L123.397902,75.9574554 L132,75.9574554 L132,10.5953571 C132,5.05017857 126.721473,0 120.924375,0 L11.075625,0 C5.27852679,0.00147321429 0,5.05017857 0,10.5953571 L0,120.818304 C0,126.364955 5.27852679,131.415134 11.075625,131.415134 L44.9742857,131.415134 L44.9742857,123.229955 L11.075625,123.229955 C9.78214286,123.229955 8.60357143,122.079375 8.60357143,120.81683 L8.60357143,10.5953571 C8.60357143,9.3328125 9.78214286,8.18370536 11.075625,8.18370536 L120.924375,8.18370536 C122.21933,8.18370536 123.397902,9.3328125 123.397902,10.5953571 Z" id="路径" fill="#FFFFFF"></path>
                <path d="M22.4945089,22.5578571 L92.4,22.5578571 L92.4,29.4009375 L22.4945089,29.4009375 L22.4945089,22.5578571 M22.4945089,43.7736161 L68.1641518,43.7736161 L68.1641518,50.6166964 L22.4945089,50.6166964 L22.4945089,43.7736161 M22.4945089,64.3161161 L52.4434821,64.3161161 L52.4434821,71.1577232 L22.4945089,71.1577232 L22.4945089,64.3161161" id="形状" fill="#FFFFFF"></path>
                <path d="M108.080893,65.6965179 C108.080893,56.1088393 100.23308,47.9000893 89.5360714,47.9000893 C79.5579911,47.9000893 70.9897768,55.4326339 70.9897768,65.6965179 C70.9897768,75.2694643 78.8375893,83.4914732 89.5360714,83.4914732 C99.5274107,82.8005357 108.080893,75.2694643 108.080893,65.6965179 Z" id="路径" fill="#19AAB1"></path>
                <path d="M113.796964,88.9674107 L110.225893,88.9674107 L90.9591964,119.082857 L98.0866071,93.0644196 C98.0866071,92.3749554 98.0866071,91.7002232 97.3824107,91.0092857 L90.9606696,84.1676786 C90.2402679,83.4767411 88.8156696,83.4767411 88.11,84.1676786 L81.6882589,91.0092857 C80.9678571,91.7002232 80.9678571,92.3749554 80.9678571,93.0644196 L88.11,119.082857 L68.8580357,88.9674107 L65.2869643,88.9674107 C53.1638839,88.9674107 53.1638839,96.4852232 53.1638839,106.762366 L53.1638839,129.36 C53.1638839,130.740402 53.8842857,131.415134 55.3103571,131.415134 L123.79125,131.415134 C125.215848,131.415134 125.93625,130.724196 125.93625,129.36 L125.93625,106.762366 C126.625714,96.4852232 126.625714,88.9674107 113.796964,88.9674107 L113.796964,88.9674107 Z" id="路径" fill="#19AAB1"></path>
            </g>
        </g>
    </g>
</svg>